<svg width="18" height="16" viewBox="0 0 18 16" fill="none" xmlns="http://www.w3.org/2000/svg">
<path d="M17.25 7.25019H2.28787L8.01713 1.79318C8.31713 1.50743 8.32875 1.03268 8.043 0.732683C7.75763 0.433058 7.28288 0.421058 6.9825 0.706808L0.4395 6.93931C0.156375 7.22281 0 7.59931 0 8.00019C0 8.40069 0.156375 8.77756 0.452625 9.07344L6.98287 15.2932C7.128 15.4316 7.314 15.5002 7.5 15.5002C7.698 15.5002 7.896 15.4222 8.04338 15.2673C8.32912 14.9673 8.3175 14.4929 8.0175 14.2072L2.26425 8.75019H17.25C17.664 8.75019 18 8.41419 18 8.00019C18 7.58619 17.664 7.25019 17.25 7.25019Z" fill="black"/>
</svg>
