<svg width="16" height="16" viewBox="0 0 16 16" fill="none" xmlns="http://www.w3.org/2000/svg">
<path d="M15.3333 12.6667H13.558C13.2693 11.706 12.3867 11 11.3333 11C10.28 11 9.398 11.706 9.10869 12.6667H0.666656C0.298656 12.6667 0 12.9653 0 13.3333C0 13.7013 0.298656 14 0.666656 14H9.10866C9.39731 14.9607 10.28 15.6667 11.3333 15.6667C12.3866 15.6667 13.2687 14.9607 13.558 14H15.3333C15.702 14 16 13.7013 16 13.3333C16 12.9653 15.702 12.6667 15.3333 12.6667ZM11.3333 14.3333C10.782 14.3333 10.3333 13.8847 10.3333 13.3333C10.3333 12.782 10.782 12.3333 11.3333 12.3333C11.8847 12.3333 12.3333 12.782 12.3333 13.3333C12.3333 13.8847 11.8847 14.3333 11.3333 14.3333Z" fill="#BB9872"/>
<path d="M15.3333 1.99966H13.558C13.2687 1.03901 12.3867 0.333008 11.3333 0.333008C10.28 0.333008 9.398 1.03901 9.10866 1.99966H0.666656C0.298656 1.99966 0 2.29832 0 2.66632C0 3.03432 0.298656 3.33298 0.666656 3.33298H9.10866C9.398 4.29366 10.28 4.99966 11.3333 4.99966C12.3867 4.99966 13.2687 4.29366 13.558 3.33301H15.3333C15.702 3.33301 16 3.03435 16 2.66635C16 2.29835 15.702 1.99966 15.3333 1.99966ZM11.3333 3.66632C10.782 3.66632 10.3333 3.21766 10.3333 2.66632C10.3333 2.11498 10.782 1.66632 11.3333 1.66632C11.8847 1.66632 12.3333 2.11498 12.3333 2.66632C12.3333 3.21766 11.8847 3.66632 11.3333 3.66632Z" fill="#BB9872"/>
<path d="M15.3333 7.33365H6.89134C6.602 6.37299 5.72 5.66699 4.66669 5.66699C3.61337 5.66699 2.73134 6.37299 2.44203 7.33365H0.666656C0.298656 7.33365 0 7.63231 0 8.00031C0 8.36831 0.298656 8.66697 0.666656 8.66697H2.442C2.73134 9.62763 3.61334 10.3336 4.66666 10.3336C5.71997 10.3336 6.602 9.62763 6.89131 8.66697H15.3333C15.702 8.66697 16 8.36831 16 8.00031C16 7.63231 15.702 7.33365 15.3333 7.33365ZM4.66666 9.00032C4.11531 9.00032 3.66666 8.55166 3.66666 8.00031C3.66666 7.44897 4.11531 7.00031 4.66666 7.00031C5.218 7.00031 5.66666 7.44897 5.66666 8.00031C5.66666 8.55166 5.218 9.00032 4.66666 9.00032Z" fill="#BB9872"/>
</svg>
