<svg width="16" height="16" viewBox="0 0 16 16" fill="none" xmlns="http://www.w3.org/2000/svg">
<g clip-path="url(#clip0)">
<path d="M4.92097 0.669029L4.45771 0.668676C4.1214 0.668676 3.84795 0.942124 3.84795 1.27843L3.84866 2.65712L1.6535 0.46161C1.65209 0.460553 1.65121 0.459497 1.65033 0.45844L1.36738 0.175837C1.1295 -0.0622198 0.746351 -0.0567614 0.508295 0.181295L0.180967 0.508622C-0.0445883 0.734529 -0.0583223 1.09232 0.143991 1.33196C0.149625 1.34059 0.148921 1.34992 0.156492 1.35749L2.68954 3.89106L1.31332 3.88895C0.987754 3.88895 0.704973 4.17156 0.704973 4.49695V4.96021C0.704973 5.29686 0.978774 5.57067 1.31526 5.57067H4.909C5.07539 5.57067 5.23228 5.50059 5.34778 5.38261C5.46276 5.26834 5.53126 5.11462 5.53108 4.94858L5.53125 1.27914C5.53143 0.942829 5.25763 0.669029 4.92097 0.669029Z" fill="black"/>
<path d="M15.8178 14.6273L15.5352 14.3447C15.5341 14.3437 15.5331 14.3426 15.532 14.3416L13.3462 12.1558L14.7245 12.1565C15.0496 12.1565 15.3343 11.8721 15.3343 11.5467L15.3332 11.0826C15.3336 10.7463 15.0591 10.4718 14.7228 10.4721L11.0524 10.4707C10.8901 10.4711 10.7357 10.5323 10.62 10.6482L10.6034 10.6647C10.492 10.7765 10.4302 10.931 10.4302 11.093L10.4323 14.6891C10.4323 15.0258 10.7057 15.3 11.0422 15.3L11.5053 15.3003C11.8303 15.3007 12.1144 15.0167 12.1144 14.6913L12.1122 13.3147L14.6358 15.8382C14.6437 15.8461 14.6578 15.85 14.6664 15.8558C14.9061 16.0583 15.269 16.0493 15.4945 15.8238L15.8222 15.4961C16.0599 15.2584 16.0562 14.8658 15.8178 14.6273Z" fill="black"/>
<path d="M5.3736 10.6638C5.26179 10.5472 5.10596 10.4805 4.93957 10.4805H1.27012C0.933813 10.4801 0.659837 10.7539 0.660013 11.0902V11.5538C0.659837 11.7162 0.723049 11.8688 0.838731 11.9843C0.954062 12.1 1.10654 12.1629 1.26906 12.1629L2.64652 12.1618L0.471434 14.3367C0.470378 14.3378 0.469674 14.3385 0.468617 14.3396L0.222637 14.5854L0.185837 14.6223C-0.0522191 14.8604 -0.0597905 15.2596 0.177914 15.4973L0.505593 15.8253C0.731148 16.0505 1.09598 16.056 1.33544 15.8538C1.34407 15.848 1.36027 15.8408 1.36784 15.8332L3.88064 13.3204L3.87923 14.6977C3.87888 14.8599 3.94156 15.012 4.05689 15.1275C4.1724 15.2428 4.32559 15.3068 4.48793 15.3064L4.95119 15.3068C5.1197 15.3068 5.272 15.2383 5.38275 15.1275C5.49333 15.0171 5.56165 14.8644 5.56165 14.6963V11.1026C5.56165 10.9362 5.49492 10.7804 5.3736 10.6638Z" fill="black"/>
<path d="M15.8198 0.511374L15.4918 0.183342C15.2541 -0.0543617 14.8574 -0.0489033 14.6193 0.189153L14.3367 0.471757C14.3353 0.472813 14.3346 0.47387 14.3336 0.474926L12.1446 2.66374L12.146 1.28611C12.146 1.12359 12.0836 0.971816 11.9681 0.856662C11.8526 0.740627 11.6993 0.677063 11.5373 0.677415L11.0737 0.677063C10.737 0.677063 10.4634 0.950863 10.4634 1.28752L10.4636 4.95662C10.4636 5.12266 10.5303 5.27849 10.6513 5.39523C10.7638 5.51179 10.9196 5.57888 11.0856 5.57888H14.6794C14.8475 5.57888 15.0002 5.51038 15.1106 5.39998C15.2213 5.28923 15.2898 5.13692 15.2898 4.96877V4.50551C15.2898 4.34281 15.2264 4.19015 15.1109 4.07465C14.9958 3.95932 14.8431 3.89611 14.6808 3.89611L13.3035 3.89787L15.8302 1.37116C15.8378 1.36324 15.8439 1.34845 15.8497 1.33982C16.0519 1.10018 16.045 0.736577 15.8198 0.511374Z" fill="black"/>
<path d="M9.19308 6.80159C8.53261 6.14166 7.45889 6.14166 6.79878 6.80159C6.13866 7.46153 6.13866 8.53561 6.79895 9.1959C7.45889 9.85584 8.53296 9.85584 9.19308 9.1959C9.85302 8.53596 9.85302 7.46153 9.19308 6.80159Z" fill="black"/>
</g>
<defs>
<clipPath id="clip0">
<rect width="16" height="16" fill="white"/>
</clipPath>
</defs>
</svg>
