<svg width="16" height="16" viewBox="0 0 16 16" fill="none" xmlns="http://www.w3.org/2000/svg">
<path d="M5.52325 4.33101C5.51752 4.32223 5.51823 4.31273 5.51053 4.30502L2.93247 1.72679L4.33313 1.72894C4.66443 1.72894 4.9522 1.44135 4.95202 1.11022L4.9522 0.638799C4.9522 0.296205 4.67357 0.0175781 4.33116 0.0175781H0.674064C0.504916 0.0175781 0.345266 0.0888922 0.227544 0.208944C0.110717 0.325232 0.0410157 0.481657 0.0410157 0.650625V4.38476C0.0408365 4.727 0.319464 5.00562 0.661879 5.00562L1.13348 5.00598C1.47554 5.00598 1.75381 4.72771 1.75399 4.38548L1.75309 2.98249L3.98713 5.2167C3.98838 5.21777 3.98946 5.21885 3.99035 5.21992L4.2783 5.50751C4.52037 5.74976 4.91009 5.74421 5.15234 5.50195L5.48562 5.16886C5.71515 4.93897 5.72895 4.57487 5.52325 4.33101Z" fill="black"/>
<path d="M15.9984 11.6862C15.9984 11.3436 15.7201 11.0647 15.3777 11.0647L14.9064 11.0643C14.5757 11.0639 14.2866 11.353 14.2866 11.6841L14.2888 13.0849L11.7208 10.5169C11.7127 10.5088 11.6984 10.5049 11.6896 10.499C11.4457 10.2929 11.0764 10.3021 10.8469 10.5316L10.5134 10.865C10.2716 11.1069 10.2753 11.5065 10.5179 11.7491L10.8055 12.0367C10.8066 12.0378 10.8077 12.0389 10.8087 12.0399L13.0331 14.2643L11.6305 14.2636C11.2997 14.2636 11.01 14.5529 11.01 14.8841L11.011 15.3564C11.0107 15.6986 11.29 15.978 11.6323 15.9776L15.3673 15.979C15.5325 15.9787 15.6896 15.9163 15.8074 15.7984L15.8242 15.7816C15.9376 15.6678 16.0005 15.5107 16.0005 15.3458L15.9984 11.6862Z" fill="black"/>
<path d="M5.47883 10.8769L5.14519 10.5431C4.91584 10.3139 4.5444 10.3084 4.30071 10.5141C4.29193 10.52 4.27563 10.5273 4.26774 10.535L1.71064 13.0921L1.71226 11.6906C1.71244 11.5255 1.64865 11.3707 1.53128 11.2532C1.41374 11.1358 1.25785 11.0708 1.09265 11.0711L0.621222 11.0708C0.449924 11.0708 0.294753 11.1405 0.182227 11.2532C0.0695224 11.3655 0 11.5209 0 11.692V15.3491C0 15.5184 0.0680889 15.677 0.191366 15.7956C0.305325 15.9142 0.463901 15.9821 0.633048 15.9821H4.36719C4.7096 15.9825 4.98823 15.7038 4.98823 15.3616V14.8898C4.98823 14.7246 4.9239 14.5693 4.80618 14.4517C4.68882 14.334 4.53365 14.27 4.36844 14.27L2.96653 14.2711L5.17995 12.0581C5.18103 12.057 5.18192 12.0563 5.18282 12.0552L5.43296 11.8051L5.47059 11.7672C5.71284 11.525 5.72072 11.1188 5.47883 10.8769Z" fill="black"/>
<path d="M15.9633 0.652758C15.9633 0.48379 15.8954 0.325215 15.7723 0.206417C15.6578 0.0877993 15.4992 0.0195312 15.3303 0.0195312H11.6732C11.502 0.0195312 11.3467 0.0892328 11.2343 0.20158C11.1216 0.314285 11.0519 0.469277 11.0519 0.640395V1.11182C11.0519 1.27738 11.1164 1.43273 11.234 1.55028C11.3512 1.66764 11.5065 1.73197 11.6717 1.73197L13.0733 1.73018L10.502 4.30143C10.4943 4.30949 10.488 4.32454 10.4821 4.33332C10.2764 4.57719 10.2834 4.9472 10.5126 5.17637L10.8464 5.51019C11.0883 5.75208 11.492 5.74653 11.7343 5.50427L12.0218 5.21669C12.0233 5.21561 12.024 5.21454 12.0251 5.21346L14.2527 2.98606L14.2512 4.38797C14.2512 4.55336 14.3146 4.70781 14.4322 4.825C14.5497 4.94308 14.7058 5.00776 14.8706 5.0074L15.3424 5.00776C15.685 5.00776 15.9635 4.72913 15.9635 4.38654L15.9633 0.652758Z" fill="black"/>
<path d="M9.21568 6.7947C8.54358 6.12312 7.45093 6.12312 6.77918 6.7947C6.10743 7.46627 6.10743 8.55928 6.77936 9.23121C7.45093 9.90278 8.54393 9.90278 9.21568 9.23121C9.88725 8.55964 9.88725 7.46627 9.21568 6.7947Z" fill="black"/>
</svg>
