<svg width="48" height="48" viewBox="0 0 48 48" fill="none" xmlns="http://www.w3.org/2000/svg">
<path fill-rule="evenodd" clip-rule="evenodd" d="M24 46.2C36.2607 46.2 46.2 36.2607 46.2 24C46.2 11.7393 36.2607 1.8 24 1.8C11.7393 1.8 1.8 11.7393 1.8 24C1.8 36.2607 11.7393 46.2 24 46.2ZM24 48C37.2548 48 48 37.2548 48 24C48 10.7452 37.2548 0 24 0C10.7452 0 0 10.7452 0 24C0 37.2548 10.7452 48 24 48Z" fill="#43CD82"/>
<path d="M34.5568 16.4435C34.2325 16.1191 33.7064 16.1191 33.382 16.4435L19.9153 29.9103L14.6184 24.6133C14.294 24.2889 13.768 24.2889 13.4435 24.6133C13.1191 24.9378 13.1191 25.4638 13.4435 25.7882L19.3279 31.6726C19.6522 31.9969 20.1784 31.997 20.5028 31.6726L34.5568 17.6184C34.8813 17.2939 34.8813 16.7679 34.5568 16.4435Z" fill="#43CD82"/>
</svg>
