<svg width="16" height="16" viewBox="0 0 16 16" fill="none" xmlns="http://www.w3.org/2000/svg">
<g clip-path="url(#clip0)">
<path d="M14.6709 2.30263H11.342V1.75987C11.342 0.789474 10.5525 0 9.58213 0H6.41766C5.44727 0 4.65779 0.789474 4.65779 1.75987V2.30263H1.32884C1.08213 2.30263 0.884766 2.5 0.884766 2.74671C0.884766 2.99342 1.08213 3.19079 1.32884 3.19079H2.13148V13.625C2.13148 14.9342 3.19727 16 4.50648 16H11.4933C12.8025 16 13.8683 14.9342 13.8683 13.625V3.19079H14.6709C14.9177 3.19079 15.115 2.99342 15.115 2.74671C15.115 2.5 14.9177 2.30263 14.6709 2.30263ZM5.54595 1.75987C5.54595 1.27961 5.9374 0.888158 6.41766 0.888158H9.58213C10.0624 0.888158 10.4538 1.27961 10.4538 1.75987V2.30263H5.54595V1.75987ZM12.9802 13.625C12.9802 14.4441 12.3124 15.1118 11.4933 15.1118H4.50648C3.6874 15.1118 3.01963 14.4441 3.01963 13.625V3.19079H12.9834V13.625H12.9802Z" fill="black" stroke="black" stroke-width="0.3"/>
<path d="M7.99974 13.52C8.24645 13.52 8.44381 13.3227 8.44381 13.076V5.22728C8.44381 4.98057 8.24645 4.7832 7.99974 4.7832C7.75303 4.7832 7.55566 4.98057 7.55566 5.22728V13.0727C7.55566 13.3194 7.75303 13.52 7.99974 13.52Z" fill="black" stroke="black" stroke-width="0.3"/>
<path d="M5.10228 13.0294C5.34899 13.0294 5.54636 12.832 5.54636 12.5853V5.71361C5.54636 5.4669 5.34899 5.26953 5.10228 5.26953C4.85557 5.26953 4.6582 5.4669 4.6582 5.71361V12.5853C4.6582 12.832 4.85886 13.0294 5.10228 13.0294Z" fill="black" stroke="black" stroke-width="0.3"/>
<path d="M10.8982 13.0294C11.1449 13.0294 11.3423 12.832 11.3423 12.5853V5.71361C11.3423 5.4669 11.1449 5.26953 10.8982 5.26953C10.6515 5.26953 10.4541 5.4669 10.4541 5.71361V12.5853C10.4541 12.832 10.6515 13.0294 10.8982 13.0294Z" fill="black" stroke="black" stroke-width="0.3"/>
</g>
<defs>
<clipPath id="clip0">
<rect width="16" height="16" fill="white"/>
</clipPath>
</defs>
</svg>
